<svg width="98" height="54" viewBox="0 0 98 54" fill="none" xmlns="http://www.w3.org/2000/svg">
<path d="M56.8401 19.61C56.3294 19.099 55.7229 18.6936 55.0555 18.4171C54.388 18.1405 53.6726 17.9982 52.9501 17.9982C52.2276 17.9982 51.5122 18.1405 50.8448 18.4171C50.1773 18.6936 49.5709 19.099 49.0601 19.61L48.0001 20.67L46.9401 19.61C45.9084 18.5783 44.5092 17.9987 43.0501 17.9987C41.5911 17.9987 40.1918 18.5783 39.1601 19.61C38.1284 20.6417 37.5488 22.041 37.5488 23.5C37.5488 24.959 38.1284 26.3583 39.1601 27.39L40.2201 28.45L48.0001 36.23L55.7801 28.45L56.8401 27.39C57.3511 26.8792 57.7565 26.2728 58.033 25.6053C58.3096 24.9379 58.4519 24.2225 58.4519 23.5C58.4519 22.7775 58.3096 22.0621 58.033 21.3946C57.7565 20.7272 57.3511 20.1208 56.8401 19.61V19.61Z" stroke="#565555" stroke-width="2" stroke-linecap="round" stroke-linejoin="round"/>
</svg>
