<svg width="98" height="54" viewBox="0 0 98 54" fill="none" xmlns="http://www.w3.org/2000/svg">
<path d="M53 36V34C53 32.9391 52.5786 31.9217 51.8284 31.1716C51.0783 30.4214 50.0609 30 49 30H41C39.9391 30 38.9217 30.4214 38.1716 31.1716C37.4214 31.9217 37 32.9391 37 34V36" stroke="#565555" stroke-width="2" stroke-linecap="round" stroke-linejoin="round"/>
<path d="M45 26C47.2091 26 49 24.2091 49 22C49 19.7909 47.2091 18 45 18C42.7909 18 41 19.7909 41 22C41 24.2091 42.7909 26 45 26Z" stroke="#565555" stroke-width="2" stroke-linecap="round" stroke-linejoin="round"/>
<path d="M59 36V34C58.9993 33.1137 58.7044 32.2528 58.1614 31.5523C57.6184 30.8519 56.8581 30.3516 56 30.13" stroke="#565555" stroke-width="2" stroke-linecap="round" stroke-linejoin="round"/>
<path d="M52 18.13C52.8604 18.3503 53.623 18.8507 54.1676 19.5523C54.7122 20.2539 55.0078 21.1168 55.0078 22.005C55.0078 22.8932 54.7122 23.7561 54.1676 24.4577C53.623 25.1593 52.8604 25.6597 52 25.88" stroke="#565555" stroke-width="2" stroke-linecap="round" stroke-linejoin="round"/>
</svg>
